<svg width="36" height="36" viewBox="0 0 36 36" fill="none" xmlns="http://www.w3.org/2000/svg">
<circle cx="18" cy="18" r="17.5" fill="white" stroke="#CCCCCC"/>
<path d="M11.7778 17.1111H15.3333C16.3111 17.1111 17.1111 16.3111 17.1111 15.3333V11.7778C17.1111 10.8 16.3111 10 15.3333 10H11.7778C10.8 10 10 10.8 10 11.7778V15.3333C10 16.3111 10.8 17.1111 11.7778 17.1111ZM11.7778 11.7778H15.3333V15.3333H11.7778V11.7778ZM11.7778 26H15.3333C16.3111 26 17.1111 25.2 17.1111 24.2222V20.6667C17.1111 19.6889 16.3111 18.8889 15.3333 18.8889H11.7778C10.8 18.8889 10 19.6889 10 20.6667V24.2222C10 25.2 10.8 26 11.7778 26ZM11.7778 20.6667H15.3333V24.2222H11.7778V20.6667ZM18.8889 11.7778V15.3333C18.8889 16.3111 19.6889 17.1111 20.6667 17.1111H24.2222C25.2 17.1111 26 16.3111 26 15.3333V11.7778C26 10.8 25.2 10 24.2222 10H20.6667C19.6889 10 18.8889 10.8 18.8889 11.7778ZM24.2222 15.3333H20.6667V11.7778H24.2222V15.3333ZM26 25.5556V24.6667C26 24.4178 25.8044 24.2222 25.5556 24.2222H24.6667C24.4178 24.2222 24.2222 24.4178 24.2222 24.6667V25.5556C24.2222 25.8044 24.4178 26 24.6667 26H25.5556C25.8044 26 26 25.8044 26 25.5556ZM18.8889 19.3333V20.2222C18.8889 20.4711 19.0844 20.6667 19.3333 20.6667H20.2222C20.4711 20.6667 20.6667 20.4711 20.6667 20.2222V19.3333C20.6667 19.0844 20.4711 18.8889 20.2222 18.8889H19.3333C19.0844 18.8889 18.8889 19.0844 18.8889 19.3333ZM22 20.6667H21.1111C20.8622 20.6667 20.6667 20.8622 20.6667 21.1111V22C20.6667 22.2489 20.8622 22.4444 21.1111 22.4444H22C22.2489 22.4444 22.4444 22.2489 22.4444 22V21.1111C22.4444 20.8622 22.2489 20.6667 22 20.6667ZM18.8889 22.8889V23.7778C18.8889 24.0267 19.0844 24.2222 19.3333 24.2222H20.2222C20.4711 24.2222 20.6667 24.0267 20.6667 23.7778V22.8889C20.6667 22.64 20.4711 22.4444 20.2222 22.4444H19.3333C19.0844 22.4444 18.8889 22.64 18.8889 22.8889ZM21.1111 26H22C22.2489 26 22.4444 25.8044 22.4444 25.5556V24.6667C22.4444 24.4178 22.2489 24.2222 22 24.2222H21.1111C20.8622 24.2222 20.6667 24.4178 20.6667 24.6667V25.5556C20.6667 25.8044 20.8622 26 21.1111 26ZM22.8889 24.2222H23.7778C24.0267 24.2222 24.2222 24.0267 24.2222 23.7778V22.8889C24.2222 22.64 24.0267 22.4444 23.7778 22.4444H22.8889C22.64 22.4444 22.4444 22.64 22.4444 22.8889V23.7778C22.4444 24.0267 22.64 24.2222 22.8889 24.2222ZM23.7778 18.8889H22.8889C22.64 18.8889 22.4444 19.0844 22.4444 19.3333V20.2222C22.4444 20.4711 22.64 20.6667 22.8889 20.6667H23.7778C24.0267 20.6667 24.2222 20.4711 24.2222 20.2222V19.3333C24.2222 19.0844 24.0267 18.8889 23.7778 18.8889ZM24.6667 22.4444H25.5556C25.8044 22.4444 26 22.2489 26 22V21.1111C26 20.8622 25.8044 20.6667 25.5556 20.6667H24.6667C24.4178 20.6667 24.2222 20.8622 24.2222 21.1111V22C24.2222 22.2489 24.4178 22.4444 24.6667 22.4444Z" fill="#666666"/>
</svg>
