<svg width="16" height="16" viewBox="0 0 16 16" fill="none" xmlns="http://www.w3.org/2000/svg">
<path d="M7.29264 7.99999L5.87864 6.58599C5.78756 6.49169 5.73716 6.36539 5.7383 6.23429C5.73944 6.10319 5.79202 5.97779 5.88473 5.88508C5.97743 5.79238 6.10284 5.7398 6.23394 5.73866C6.36503 5.73752 6.49134 5.78791 6.58564 5.87899L7.99964 7.29299L9.41364 5.87899C9.45976 5.83124 9.51493 5.79315 9.57593 5.76694C9.63694 5.74074 9.70255 5.72694 9.76894 5.72637C9.83533 5.72579 9.90117 5.73844 9.96261 5.76358C10.0241 5.78872 10.0799 5.82585 10.1268 5.8728C10.1738 5.91974 10.2109 5.97557 10.236 6.03702C10.2612 6.09846 10.2738 6.1643 10.2733 6.23069C10.2727 6.29708 10.2589 6.36269 10.2327 6.4237C10.2065 6.4847 10.1684 6.53987 10.1206 6.58599L8.70664 7.99999L10.1206 9.41399C10.1684 9.46012 10.2065 9.51529 10.2327 9.57629C10.2589 9.63729 10.2727 9.7029 10.2733 9.76929C10.2738 9.83568 10.2612 9.90152 10.236 9.96297C10.2109 10.0244 10.1738 10.0802 10.1268 10.1272C10.0799 10.1741 10.0241 10.2113 9.96261 10.2364C9.90117 10.2615 9.83533 10.2742 9.76894 10.2736C9.70255 10.273 9.63694 10.2592 9.57593 10.233C9.51493 10.2068 9.45976 10.1687 9.41364 10.121L7.99964 8.70699L6.58564 10.121C6.49134 10.2121 6.36503 10.2625 6.23394 10.2613C6.10284 10.2602 5.97743 10.2076 5.88473 10.1149C5.79202 10.0222 5.73944 9.89679 5.7383 9.76569C5.73716 9.6346 5.78756 9.50829 5.87864 9.41399L7.29264 7.99999Z" fill="#333333"/>
<path d="M8 14C8.78793 14 9.56815 13.8448 10.2961 13.5433C11.0241 13.2417 11.6855 12.7998 12.2426 12.2426C12.7998 11.6855 13.2417 11.0241 13.5433 10.2961C13.8448 9.56815 14 8.78793 14 8C14 7.21207 13.8448 6.43185 13.5433 5.7039C13.2417 4.97595 12.7998 4.31451 12.2426 3.75736C11.6855 3.20021 11.0241 2.75825 10.2961 2.45672C9.56815 2.15519 8.78793 2 8 2C6.4087 2 4.88258 2.63214 3.75736 3.75736C2.63214 4.88258 2 6.4087 2 8C2 9.5913 2.63214 11.1174 3.75736 12.2426C4.88258 13.3679 6.4087 14 8 14ZM8 15C6.14348 15 4.36301 14.2625 3.05025 12.9497C1.7375 11.637 1 9.85652 1 8C1 6.14348 1.7375 4.36301 3.05025 3.05025C4.36301 1.7375 6.14348 1 8 1C9.85652 1 11.637 1.7375 12.9497 3.05025C14.2625 4.36301 15 6.14348 15 8C15 9.85652 14.2625 11.637 12.9497 12.9497C11.637 14.2625 9.85652 15 8 15Z" fill="#333333"/>
</svg>
