<svg width="101" height="68" viewBox="0 0 101 68" fill="none" xmlns="http://www.w3.org/2000/svg">
<rect width="101" height="68" rx="5" fill="#F5F5F5"/>
<path d="M67.9297 43.3684C67.91 42.4994 67.8791 41.6331 67.8594 40.7725C67.7891 38.0725 67.8651 35.3359 67.7891 32.6219C67.7132 29.9275 67.8594 27.2388 67.8482 24.5472C67.8454 23.9875 67.896 22.885 67.3475 22.5531C66.1635 21.8388 65.4069 23.6922 65.0835 24.4431C64.5013 25.81 64.1469 27.2556 63.7194 28.6731C63.3566 29.8881 62.9432 31.1003 62.7857 32.3631C62.6676 33.3109 62.6507 34.3741 63.1091 35.2431C63.3397 35.6791 63.7476 35.9828 64.2201 36.1178C64.7094 36.2584 65.2747 36.1038 65.736 36.3428C65.8541 36.4047 65.9582 36.5341 66.0032 36.6606C66.1438 37.0713 65.9863 37.6872 65.93 38.1034C65.7472 39.4534 65.5588 40.8175 65.4547 42.1759C65.3929 42.9972 65.3226 44.0491 65.7866 44.7775C66.0707 45.2191 66.6585 45.6409 67.2013 45.4356C68.0085 45.1403 67.9466 44.0603 67.9297 43.3684ZM38.0329 23.1241C37.8022 23.2225 37.8979 24.0775 37.8922 24.3419C37.881 24.8144 37.9204 25.4416 37.8697 26.0547V26.0688C37.8669 26.1109 37.8613 26.1588 37.8557 26.2066C37.85 26.2544 37.8416 26.2994 37.836 26.3444C37.791 26.6425 37.701 26.9969 37.5238 27.1684C37.3241 27.3625 36.8713 27.3288 36.7138 27.1009C36.4522 26.7325 36.4663 25.8972 36.4494 25.8719C36.4354 25.4781 36.3679 24.2856 36.2779 23.5009C36.2694 23.4419 36.2554 23.0847 35.9432 23.0509C35.7969 23.0341 35.6422 23.1663 35.5972 23.4025C35.4566 24.1 35.3329 25.4303 35.3244 25.6384C35.3244 25.6581 35.3216 25.6806 35.3216 25.7031V25.7088C35.3216 25.7509 35.2822 26.7944 35.0319 27.1544C34.8997 27.3428 34.5566 27.4947 34.2135 27.2978C34.0757 27.2191 33.9801 27.0644 33.9126 26.9013C33.5441 25.7481 33.8507 24.4713 33.8901 23.8638C33.9013 23.6922 34.0447 23.1213 33.7129 23.1438C33.2122 23.1775 32.5879 25.3938 32.4782 25.9028C32.2082 27.1656 32.1772 28.5156 32.6835 29.7278C32.9619 30.3972 33.5047 30.9456 34.1713 31.2072C34.4666 31.3225 34.7929 31.4041 35.1388 31.4491C35.0432 34.3178 34.9307 37.3131 34.8182 38.9781C34.731 40.2325 34.6269 41.5009 34.655 42.7609C34.6719 43.5119 34.6747 44.4091 35.1557 45.0363C35.6619 45.6888 36.7082 45.3766 36.9838 44.5947C37.2932 43.7144 37.1891 42.6934 37.0682 41.0819C36.9444 39.4703 36.7982 37.2709 36.7194 36.0869C36.6041 34.3459 36.5535 32.8216 36.531 31.4322C37.4141 31.2916 38.2354 30.8922 38.691 30.1609C38.8907 29.8431 39.0201 29.4859 39.1072 29.1231C39.2422 28.5719 39.3041 27.9644 39.2676 27.3991C39.2282 26.8816 38.7726 22.8091 38.0329 23.1241Z" fill="#E5E5E5"/>
<path d="M50.5625 45.4553C56.8953 45.4553 62.0291 40.3216 62.0291 33.9888C62.0291 27.656 56.8953 22.5222 50.5625 22.5222C44.2297 22.5222 39.0959 27.656 39.0959 33.9888C39.0959 40.3216 44.2297 45.4553 50.5625 45.4553Z" fill="#E5E5E5"/>
<path d="M50.6891 27.6015C58.1057 27.3203 59.4078 37.8643 52.8772 40.2381C50.4078 41.1353 47.3591 40.6853 45.5197 38.7165C43.3569 36.4018 43.4441 32.6978 45.351 30.279C45.905 29.5759 44.9178 28.5746 44.3553 29.2834C40.4403 34.2503 43.3007 41.6471 49.8313 42.0662C55.3382 42.4178 59.7172 37.3468 58.3672 31.9384C57.4982 28.4537 54.275 26.0603 50.6891 26.1953C49.7863 26.229 49.7835 27.6353 50.6891 27.6015Z" fill="#EFEFEF"/>
</svg>