<svg width="16" height="16" viewBox="0 0 16 16" fill="none" xmlns="http://www.w3.org/2000/svg">
<rect width="16" height="16" rx="8" fill="white"/>
<path d="M7.29288 8.00021L5.87888 6.58621C5.7878 6.49191 5.73741 6.3656 5.73854 6.23451C5.73968 6.10341 5.79227 5.978 5.88497 5.8853C5.97768 5.79259 6.10308 5.74001 6.23418 5.73887C6.36528 5.73773 6.49158 5.78813 6.58588 5.87921L7.99988 7.29321L9.41388 5.87921C9.46 5.83145 9.51518 5.79336 9.57618 5.76716C9.63718 5.74095 9.70279 5.72716 9.76918 5.72658C9.83557 5.726 9.90141 5.73866 9.96286 5.7638C10.0243 5.78894 10.0801 5.82606 10.1271 5.87301C10.174 5.91996 10.2112 5.97578 10.2363 6.03723C10.2614 6.09868 10.2741 6.16452 10.2735 6.23091C10.2729 6.2973 10.2591 6.36291 10.2329 6.42391C10.2067 6.48491 10.1686 6.54008 10.1209 6.58621L8.70688 8.00021L10.1209 9.41421C10.1686 9.46033 10.2067 9.5155 10.2329 9.5765C10.2591 9.63751 10.2729 9.70312 10.2735 9.76951C10.2741 9.8359 10.2614 9.90174 10.2363 9.96318C10.2112 10.0246 10.174 10.0805 10.1271 10.1274C10.0801 10.1744 10.0243 10.2115 9.96286 10.2366C9.90141 10.2618 9.83557 10.2744 9.76918 10.2738C9.70279 10.2733 9.63718 10.2595 9.57618 10.2333C9.51518 10.2071 9.46 10.169 9.41388 10.1212L7.99988 8.70721L6.58588 10.1212C6.49158 10.2123 6.36528 10.2627 6.23418 10.2615C6.10308 10.2604 5.97768 10.2078 5.88497 10.1151C5.79227 10.0224 5.73968 9.89701 5.73854 9.76591C5.73741 9.63481 5.7878 9.50851 5.87888 9.41421L7.29288 8.00021Z" fill="#DC1A00"/>
<path d="M8 14C8.78793 14 9.56815 13.8448 10.2961 13.5433C11.0241 13.2417 11.6855 12.7998 12.2426 12.2426C12.7998 11.6855 13.2417 11.0241 13.5433 10.2961C13.8448 9.56815 14 8.78793 14 8C14 7.21207 13.8448 6.43185 13.5433 5.7039C13.2417 4.97595 12.7998 4.31451 12.2426 3.75736C11.6855 3.20021 11.0241 2.75825 10.2961 2.45672C9.56815 2.15519 8.78793 2 8 2C6.4087 2 4.88258 2.63214 3.75736 3.75736C2.63214 4.88258 2 6.4087 2 8C2 9.5913 2.63214 11.1174 3.75736 12.2426C4.88258 13.3679 6.4087 14 8 14ZM8 15C6.14348 15 4.36301 14.2625 3.05025 12.9497C1.7375 11.637 1 9.85652 1 8C1 6.14348 1.7375 4.36301 3.05025 3.05025C4.36301 1.7375 6.14348 1 8 1C9.85652 1 11.637 1.7375 12.9497 3.05025C14.2625 4.36301 15 6.14348 15 8C15 9.85652 14.2625 11.637 12.9497 12.9497C11.637 14.2625 9.85652 15 8 15Z" fill="#DC1A00"/>
</svg>
