<svg width="24" height="24" viewBox="0 0 24 24" fill="none" xmlns="http://www.w3.org/2000/svg">
<path d="M12.001 5C12.7315 4.99998 13.4337 5.23202 13.96 5.64743C14.4864 6.06283 14.796 6.6293 14.824 7.22791L14.826 7.31655H18.3879C18.5449 7.31696 18.6959 7.36672 18.8096 7.45559C18.9233 7.54446 18.9911 7.66568 18.9992 7.79432C19.0072 7.92296 18.9549 8.04924 18.8529 8.14719C18.7509 8.24514 18.6069 8.30731 18.4507 8.32092L18.3879 8.32374H17.8519L17.0152 17.4167C16.9755 17.8473 16.739 18.2497 16.3529 18.5433C15.9668 18.8369 15.4596 19 14.9331 19H9.06893C8.54236 19 8.03523 18.8369 7.64913 18.5433C7.26302 18.2497 7.02645 17.8473 6.98681 17.4167L6.14964 8.32374H5.61412C5.46209 8.3238 5.31543 8.27761 5.20253 8.19411C5.08963 8.1106 5.01852 7.99573 5.00295 7.87171L5 7.82014C5 7.55948 5.24172 7.34475 5.55124 7.31937L5.61412 7.31655H9.17603C9.17603 6.70216 9.47366 6.11294 10.0034 5.6785C10.5332 5.24406 11.2518 5 12.001 5ZM16.6202 8.32374H7.38181L8.2121 17.3409C8.22845 17.5182 8.3258 17.6838 8.48467 17.8046C8.64354 17.9255 8.85221 17.9927 9.06893 17.9928H14.9331C15.1499 17.9928 15.3586 17.9256 15.5176 17.8048C15.6766 17.6839 15.774 17.5182 15.7904 17.3409L16.6207 8.32374H16.6202ZM13.5977 10.4388C13.9156 10.4388 14.1774 10.6371 14.2089 10.8909L14.2118 10.9424V15.3741C14.2126 15.5036 14.1524 15.6283 14.0439 15.7224C13.9354 15.8165 13.7869 15.8727 13.6292 15.8794C13.4715 15.886 13.3167 15.8426 13.197 15.7581C13.0774 15.6736 13.002 15.5545 12.9865 15.4257L12.9836 15.3741V10.9424C12.9836 10.6645 13.2587 10.4388 13.5977 10.4388ZM10.4043 10.4388C10.7221 10.4388 10.984 10.6371 11.0154 10.8909L11.0184 10.9424V15.3741C11.0191 15.5036 10.959 15.6283 10.8505 15.7224C10.742 15.8165 10.5935 15.8727 10.4358 15.8794C10.278 15.886 10.1233 15.8426 10.0036 15.7581C9.88392 15.6736 9.80854 15.5545 9.7931 15.4257L9.79015 15.3741V10.9424C9.79015 10.6645 10.0653 10.4388 10.4043 10.4388ZM12.001 6.00719C11.5931 6.00717 11.2008 6.13513 10.9043 6.36482C10.6079 6.5945 10.4298 6.90851 10.4067 7.24242L10.4043 7.31655H13.5977C13.5977 6.96928 13.4295 6.63625 13.13 6.39069C12.8306 6.14514 12.4245 6.00719 12.001 6.00719Z" fill="#666666"/>
</svg>
