<svg width="24" height="24" viewBox="0 0 24 24" fill="none" xmlns="http://www.w3.org/2000/svg">
<path d="M4 18.4615C4 18.1642 4.24108 17.9231 4.53846 17.9231H19.4615C19.7589 17.9231 20 18.1642 20 18.4615C20 18.7589 19.7589 19 19.4615 19H4.53846C4.24108 19 4 18.7589 4 18.4615ZM17.3714 8.76923C17.8286 8.33846 17.8286 7.69231 17.3714 7.26154L15.3143 5.32308C14.8571 4.89231 14.1714 4.89231 13.7143 5.32308L5.45706 13.1039C5.25653 13.2929 5.14286 13.5562 5.14286 13.8317V15.8462C5.14286 16.3984 5.59057 16.8462 6.14286 16.8462H8.40308C8.65802 16.8462 8.90333 16.7488 9.08888 16.5739L17.3714 8.76923ZM13.8285 6.72316C14.2137 6.36021 14.8149 6.36021 15.2001 6.72316L15.7991 7.2876C16.218 7.68236 16.218 8.34841 15.7991 8.74317L15.5429 8.98453C15.1578 9.34748 14.5565 9.34748 14.1713 8.98453L13.5723 8.4201C13.1534 8.02533 13.1534 7.35928 13.5723 6.96452L13.8285 6.72316ZM7.28571 15.7692C6.73343 15.7692 6.28571 15.3215 6.28571 14.7692V14.2625C6.28571 13.987 6.39939 13.7237 6.59991 13.5347L11.3142 9.09239C11.6994 8.72944 12.3006 8.72944 12.6858 9.09239L13.2848 9.65683C13.7037 10.0516 13.7037 10.7176 13.2848 11.1124L8.63173 15.497C8.44619 15.6719 8.20087 15.7692 7.94593 15.7692H7.28571Z" fill="#999999"/>
</svg>
