<svg width="260" height="240" viewBox="0 0 260 240" fill="none" xmlns="http://www.w3.org/2000/svg">
<g clip-path="url(#clip0_4378_21151)">
<path d="M260 238.457H0V240H260V238.457Z" fill="#3F3D56"/>
<path d="M227.256 113.072C227.594 113.46 227.845 113.912 227.992 114.4C228.139 114.888 228.18 115.401 228.111 115.906C228.043 116.41 227.867 116.895 227.594 117.329C227.321 117.762 226.958 118.135 226.529 118.423L208.371 130.597L200.375 135.803C199.921 136.098 199.37 136.218 198.831 136.14C198.291 136.061 197.8 135.788 197.455 135.376C197.253 135.135 197.107 134.855 197.028 134.554C196.948 134.253 196.936 133.939 196.993 133.633C197.05 133.328 197.174 133.038 197.357 132.783C197.54 132.529 197.777 132.316 198.052 132.16L205.796 127.769L219.312 115.199L210.624 106.086L217.06 101.372L227.256 113.072Z" fill="#FFB6B6"/>
<path d="M184.558 227.701H180.116L177.478 191.876L188.741 191.562L184.558 227.701Z" fill="#FFB6B6"/>
<path d="M184.879 239.328C183.695 239.856 182.703 235.579 181.704 236.538C178.91 239.22 174.631 239.804 170.901 238.633L172.206 238.619C171.981 238.548 171.773 238.433 171.595 238.282C171.416 238.13 171.271 237.945 171.168 237.737C171.065 237.53 171.007 237.303 170.996 237.073C170.985 236.842 171.022 236.612 171.105 236.396C171.205 236.137 171.367 235.906 171.578 235.722C171.789 235.538 172.043 235.407 172.317 235.34L175.289 234.614L179.955 226.601L184.719 226.287C185.78 227.609 186.522 229.149 186.886 230.791C187.251 232.433 187.229 234.134 186.823 235.767C186.391 237.49 185.724 238.952 184.879 239.328Z" fill="#2F2E41"/>
<path d="M214.132 227.701H209.69L207.052 191.876L218.637 189.677L214.132 227.701Z" fill="#FFB6B6"/>
<path d="M214.453 239.328C213.269 239.856 212.277 235.58 211.278 236.538C208.484 239.22 204.205 239.804 200.475 238.633L201.78 238.619C201.555 238.548 201.347 238.434 201.169 238.282C200.99 238.131 200.845 237.945 200.742 237.738C200.639 237.53 200.581 237.304 200.57 237.073C200.559 236.842 200.596 236.612 200.679 236.396C200.779 236.137 200.941 235.906 201.152 235.722C201.363 235.538 201.617 235.407 201.891 235.34L204.863 234.615L209.529 226.601L214.614 225.973L214.743 226.178C215.726 227.725 216.36 229.459 216.602 231.265C216.844 233.07 216.689 234.905 216.148 236.648C215.725 237.971 215.149 239.018 214.453 239.328Z" fill="#2F2E41"/>
<path d="M219.168 102.183C215.083 102.738 212.255 104.922 211.104 109.28L203.596 95.7425C203.15 94.8822 203.037 93.894 203.278 92.9591C203.518 92.0242 204.095 91.2051 204.903 90.652C205.761 90.0649 206.817 89.8204 207.853 89.9685C208.89 90.1167 209.829 90.6464 210.479 91.4489L219.168 102.183Z" fill="#0EB378"/>
<path d="M227.035 188.105C208.78 195.993 190.098 196.963 171.042 191.876C178 165.521 186.217 141.689 186.166 122.113L204.831 120.542L207.705 124.991C214.523 135.546 219.229 147.269 221.574 159.537L227.035 188.105Z" fill="#2F2E41"/>
<path d="M196.464 81.5743C201.796 81.5743 206.118 77.3534 206.118 72.1467C206.118 66.9401 201.796 62.7192 196.464 62.7192C191.132 62.7192 186.81 66.9401 186.81 72.1467C186.81 77.3534 191.132 81.5743 196.464 81.5743Z" fill="#FFB6B6"/>
<path d="M207.084 88.802L195.177 89.4306L193.246 79.0603L202.9 77.4893L207.084 88.802Z" fill="#A0616A"/>
<path d="M205.796 122.113L192.752 122.472L186.167 123.37C182.934 112.942 180.212 102.538 186.81 93.8304L194.533 86.2884L206.118 85.9741L206.272 86.0598C208.112 87.0891 209.537 88.6997 210.314 90.6263C211.091 92.5529 211.173 94.6805 210.546 96.6584C207.671 105.781 205.824 114.396 205.796 122.113Z" fill="#0EB378"/>
<path d="M185.845 151.338L185.036 162.137C184.992 162.715 184.736 163.259 184.315 163.668C183.894 164.076 183.335 164.323 182.743 164.361C182.401 164.383 182.059 164.336 181.737 164.222C181.416 164.108 181.122 163.929 180.875 163.698C180.628 163.467 180.433 163.188 180.302 162.879C180.172 162.57 180.108 162.238 180.116 161.904L180.374 151.338L188.419 121.484L188.741 103.258L197.751 102.943L197.108 123.998L185.845 151.338Z" fill="#FFB6B6"/>
<path d="M198.717 104.515C194.897 102.998 191.329 103.506 188.097 106.714L188.54 91.3253C188.596 90.3629 189.005 89.4524 189.692 88.7606C190.38 88.0688 191.299 87.642 192.283 87.5585C193.326 87.4699 194.365 87.7743 195.187 88.4095C196.008 89.0447 196.549 89.9624 196.7 90.9748L198.717 104.515Z" fill="#0EB378"/>
<path d="M216.899 114.099H187.293C194.199 96.2401 196.427 79.6257 187.293 65.3907C187.45 61.1151 193.065 57.4086 197.426 57.8181C202.577 58.3017 209.498 61.9977 210.463 66.9619L216.899 114.099Z" fill="#2F2E41"/>
<path d="M161.989 57.033H160.638V20.9081C160.638 18.1624 160.085 15.4436 159.009 12.9069C157.933 10.3702 156.356 8.06532 154.367 6.12382C152.379 4.18232 150.019 2.64224 147.421 1.59152C144.824 0.540789 142.04 -8.22809e-06 139.228 0H60.8532C58.0415 -6.06278e-06 55.2574 0.540795 52.6597 1.59152C50.0621 2.64225 47.7018 4.18233 45.7136 6.12383C43.7255 8.06533 42.1484 10.3702 41.0724 12.9069C39.9964 15.4436 39.4426 18.1624 39.4426 20.9081V219.092C39.4426 221.838 39.9964 224.556 41.0724 227.093C42.1484 229.63 43.7255 231.935 45.7136 233.876C47.7018 235.818 50.0621 237.358 52.6597 238.408C55.2574 239.459 58.0415 240 60.8532 240H139.228C142.04 240 144.824 239.459 147.421 238.408C150.019 237.358 152.379 235.818 154.367 233.876C156.356 231.935 157.933 229.63 159.009 227.093C160.085 224.556 160.638 221.838 160.638 219.092V82.7472H161.989V57.033Z" fill="#3F3D56"/>
<path d="M140.092 5.43945H129.861C130.332 6.56583 130.511 7.78791 130.384 8.99804C130.257 10.2082 129.827 11.3692 129.132 12.3788C128.438 13.3885 127.499 14.2158 126.4 14.7878C125.3 15.3599 124.074 15.6591 122.828 15.6592H77.9283C76.6826 15.6591 75.456 15.3599 74.3566 14.7878C73.2573 14.2158 72.3188 13.3885 71.624 12.3788C70.9291 11.3692 70.4992 10.2082 70.3721 8.99804C70.245 7.78792 70.4246 6.56583 70.8951 5.43945H61.3398C59.24 5.43945 57.1609 5.84331 55.221 6.62798C53.2811 7.41265 51.5184 8.56277 50.0337 10.0127C48.549 11.4625 47.3712 13.1838 46.5677 15.0782C45.7642 16.9725 45.3506 19.0029 45.3506 21.0534V218.946C45.3506 220.997 45.7642 223.027 46.5677 224.922C47.3712 226.816 48.549 228.537 50.0337 229.987C51.5184 231.437 53.2811 232.587 55.221 233.372C57.1609 234.156 59.24 234.56 61.3398 234.56H140.092C142.192 234.56 144.271 234.156 146.211 233.372C148.151 232.587 149.913 231.437 151.398 229.987C152.883 228.537 154.06 226.816 154.864 224.922C155.667 223.027 156.081 220.997 156.081 218.946V21.0533C156.081 16.9123 154.396 12.9408 151.398 10.0126C148.399 7.08447 144.332 5.43945 140.092 5.43945Z" fill="white"/>
<path d="M142.252 36.3521H59.1792V105.934H142.252V36.3521Z" fill="#E6E6E6"/>
<path d="M83.831 120.444C87.188 120.444 89.9095 117.786 89.9095 114.508C89.9095 111.229 87.188 108.572 83.831 108.572C80.4739 108.572 77.7524 111.229 77.7524 114.508C77.7524 117.786 80.4739 120.444 83.831 120.444Z" fill="#0EB378"/>
<path d="M86.8705 114.013H84.3378V111.54H83.3247V114.013H80.792V115.003H83.3247V117.476H84.3378V115.003H86.8705V114.013Z" fill="white"/>
<path d="M115.912 120.444C119.269 120.444 121.991 117.786 121.991 114.508C121.991 111.229 119.269 108.572 115.912 108.572C112.555 108.572 109.834 111.229 109.834 114.508C109.834 117.786 112.555 120.444 115.912 120.444Z" fill="#0EB378"/>
<path d="M118.951 115.002V114.013H112.873V115.002H118.951Z" fill="white"/>
<path d="M103.814 45.0298H97.2493C97.0184 45.0298 96.7971 45.1193 96.6338 45.2787C96.4706 45.4381 96.3789 45.6543 96.3789 45.8797V48.6936C96.3789 48.919 96.4706 49.1352 96.6338 49.2946C96.7971 49.454 97.0184 49.5436 97.2493 49.5436H98.3372V53.7598H102.726V49.5436H103.814C104.045 49.5436 104.266 49.454 104.43 49.2946C104.593 49.1352 104.685 48.919 104.685 48.6936V45.8797C104.685 45.6543 104.593 45.4381 104.43 45.2787C104.266 45.1193 104.045 45.0298 103.814 45.0298Z" fill="#0EB378"/>
<path d="M110.39 70.7826C106.369 65.0375 104.314 58.1972 104.518 51.2416C104.522 51.0811 104.468 50.9243 104.367 50.7979C104.266 50.6714 104.123 50.5831 103.962 50.5479V49.332H97.029V50.531H96.9335C96.84 50.5311 96.7475 50.5492 96.6613 50.5842C96.575 50.6193 96.4966 50.6705 96.4307 50.7351C96.3647 50.7997 96.3124 50.8764 96.2767 50.9607C96.2411 51.045 96.2228 51.1354 96.2229 51.2266C96.223 51.2435 96.2236 51.2604 96.2249 51.2772C96.7711 58.7127 94.9267 65.3807 90.6915 71.2813C90.4478 71.6203 90.3233 72.0275 90.3367 72.4415L91.0948 95.3423C91.113 95.8531 91.3326 96.3373 91.7076 96.6939C92.0826 97.0504 92.5842 97.2517 93.1075 97.2557H108.79C109.319 97.2515 109.826 97.0456 110.202 96.6819C110.578 96.3182 110.794 95.8255 110.804 95.3086L111.096 73.0738C111.105 72.2577 110.858 71.4584 110.39 70.7826Z" fill="#3F3D56"/>
<path opacity="0.2" d="M102.446 45.9468C102.446 46.4331 102.248 46.8995 101.896 47.2434C101.543 47.5873 101.066 47.7805 100.568 47.7805C100.07 47.7805 99.5921 47.5873 99.2399 47.2434C98.8878 46.8995 98.6899 46.4331 98.6899 45.9468" fill="black"/>
<path d="M107.907 78.3896H106.008C105.827 77.2407 105.23 76.1932 104.327 75.4364C103.423 74.6797 102.272 74.2637 101.082 74.2637C99.8917 74.2637 98.7407 74.6797 97.8372 75.4364C96.9337 76.1932 96.3373 77.2407 96.156 78.3896H94.2569C94.0549 78.3896 93.8552 78.4322 93.6716 78.5146C93.488 78.5971 93.3248 78.7173 93.1933 78.867C93.0617 79.0168 92.9649 79.1925 92.9094 79.3823C92.8539 79.572 92.841 79.7712 92.8718 79.9662L94.9345 93.0594H106.779L109.285 80.0103C109.322 79.8127 109.315 79.6093 109.264 79.4146C109.212 79.22 109.117 79.0389 108.986 78.8841C108.854 78.7294 108.689 78.6048 108.503 78.5194C108.316 78.4339 108.113 78.3896 107.907 78.3896V78.3896Z" fill="#0EB378"/>
<path d="M142.252 134.294H59.1792V203.876H142.252V134.294Z" fill="#E6E6E6"/>
<path d="M83.831 218.385C87.188 218.385 89.9095 215.728 89.9095 212.45C89.9095 209.171 87.188 206.514 83.831 206.514C80.4739 206.514 77.7524 209.171 77.7524 212.45C77.7524 215.728 80.4739 218.385 83.831 218.385Z" fill="#0EB378"/>
<path d="M86.8705 211.955H84.3378V209.481H83.3247V211.955H80.792V212.944H83.3247V215.417H84.3378V212.944H86.8705V211.955Z" fill="white"/>
<path d="M115.912 218.385C119.269 218.385 121.991 215.728 121.991 212.45C121.991 209.171 119.269 206.514 115.912 206.514C112.555 206.514 109.834 209.171 109.834 212.45C109.834 215.728 112.555 218.385 115.912 218.385Z" fill="#0EB378"/>
<path d="M118.951 212.944V211.955H112.873V212.944H118.951Z" fill="white"/>
<path d="M117.07 183.726L117.116 183.726C118.68 183.739 120.212 183.291 121.511 182.441C122.811 181.591 123.818 180.378 124.401 178.96C126.238 174.423 126.669 169.458 125.638 164.684C124.607 159.91 122.161 155.537 118.604 152.11C115.048 148.683 110.537 146.354 105.634 145.412C100.732 144.47 95.6539 144.957 91.0328 146.812C86.4116 148.668 82.4515 151.81 79.6455 155.847C76.8395 159.884 75.3116 164.638 75.2521 169.517C75.1925 174.396 76.6039 179.185 79.3105 183.286C82.0172 187.387 85.8995 190.621 90.474 192.583C91.8958 193.198 93.4746 193.379 95.0034 193.102C96.5323 192.825 97.9398 192.104 99.0413 191.032C101.404 188.713 104.213 186.873 107.308 185.619C110.402 184.365 113.72 183.722 117.07 183.726Z" fill="white"/>
<path d="M103.987 176.197C108.632 176.197 112.397 172.52 112.397 167.984C112.397 163.448 108.632 159.771 103.987 159.771C99.3415 159.771 95.5759 163.448 95.5759 167.984C95.5759 172.52 99.3415 176.197 103.987 176.197Z" fill="#F9A825"/>
</g>
<defs>
<clipPath id="clip0_4378_21151">
<rect width="260" height="240" fill="white"/>
</clipPath>
</defs>
</svg>
