<svg width="156" height="153" viewBox="0 0 156 153" fill="none" xmlns="http://www.w3.org/2000/svg">
<path d="M36.8173 73.1196C33.1488 73.1196 29.8407 72.2363 26.8928 70.4696C24.0104 68.6376 22.0124 66.5437 20.8988 64.1882L20.7023 72.1381H10.483V0H20.8988V27.7756L20.4075 35.4311C21.5211 32.8139 23.6829 30.5892 26.8928 28.7571C30.1682 26.8596 33.7057 25.9108 37.5051 25.9108C41.9597 25.9108 45.8247 26.925 49.1001 28.9534C52.441 30.9163 54.9959 33.6972 56.7646 37.2959C58.5333 40.8292 59.4177 44.9514 59.4177 49.6624C59.4177 54.4389 58.3695 58.5938 56.2733 62.1271C54.2425 65.6604 51.4912 68.3758 48.0192 70.2733C44.6128 72.1708 40.8788 73.1196 36.8173 73.1196ZM35.0486 64.2864C39.3066 64.2864 42.582 62.945 44.8748 60.2623C47.1676 57.5142 48.314 53.9809 48.314 49.6624C48.314 45.2785 47.1676 41.7452 44.8748 39.0626C42.6475 36.3144 39.3721 34.9404 35.0486 34.9404C31.3146 34.9404 28.1702 36.249 25.6154 38.8663C23.0606 41.4181 21.7832 44.7878 21.7832 48.9754V49.6624C21.7832 52.476 22.3727 54.9951 23.5519 57.2198C24.7965 59.4444 26.4015 61.1784 28.3667 62.4216C30.3975 63.6648 32.6248 64.2864 35.0486 64.2864Z" fill="#0EB378"/>
<path d="M82.8225 73.1196C78.761 73.1196 74.9943 72.1708 71.5224 70.2733C68.1159 68.3104 65.3646 65.5623 63.2683 62.029C61.2376 58.4302 60.2222 54.2426 60.2222 49.4661C60.2222 44.7551 61.1065 40.6329 62.8753 37.0996C64.7095 33.5663 67.2971 30.8182 70.638 28.8553C73.9789 26.8923 77.9094 25.9108 82.4295 25.9108C85.0498 25.9108 87.5064 26.3689 89.7992 27.2849C92.092 28.2009 94.0245 29.346 95.5966 30.72C97.1688 32.0287 98.217 33.3373 98.741 34.6459L98.9376 27.0886H109.059V72.1381H99.0358L98.8393 64.1882C97.7257 66.5437 95.6949 68.6376 92.747 70.4696C89.7992 72.2363 86.491 73.1196 82.8225 73.1196ZM84.5913 64.2864C88.3252 64.2864 91.4696 63.0105 94.0244 60.4586C96.5793 57.8414 97.8567 54.4389 97.8567 50.2513V49.5643C97.8567 46.7507 97.2671 44.2316 96.088 42.007C94.9088 39.7823 93.3039 38.0484 91.2731 36.8052C89.2423 35.562 87.0151 34.9404 84.5913 34.9404C80.3987 34.9404 77.1561 36.3144 74.8633 39.0626C72.5705 41.7452 71.4241 45.2458 71.4241 49.5643C71.4241 53.9482 72.5377 57.5142 74.765 60.2623C77.0578 62.945 80.3332 64.2864 84.5913 64.2864Z" fill="#0EB378"/>
<path d="M130.994 73.1196C127.85 73.1196 124.574 72.727 121.168 71.9418C117.827 71.0912 115.436 70.1098 113.995 68.9974L117.532 60.6549C121.463 63.403 125.95 64.7771 130.994 64.7771C136.038 64.7771 138.56 63.3049 138.56 60.3605C138.56 59.0518 138.036 58.0377 136.988 57.3179C135.94 56.5982 134.073 55.7476 131.387 54.7661L127.653 53.392C123.723 51.8217 120.611 49.9569 118.318 47.7976C116.026 45.573 114.879 42.6613 114.879 39.0626C114.879 34.9404 116.484 31.7342 119.694 29.4441C122.969 27.0886 127.326 25.9108 132.763 25.9108C135.449 25.9108 138.069 26.2053 140.624 26.7942C143.244 27.383 145.242 28.1355 146.618 29.0515L142.786 37.4922C141.934 36.6416 140.558 35.9218 138.659 35.333C136.824 34.6786 134.761 34.3515 132.468 34.3515C127.817 34.3515 125.491 35.7583 125.491 38.5718C125.491 40.1422 126.114 41.3526 127.358 42.2033C128.603 42.9884 130.634 43.8718 133.451 44.8532C133.713 44.9187 134.728 45.2785 136.497 45.9328C140.689 47.5686 143.801 49.4334 145.832 51.5272C147.863 53.621 148.878 56.3037 148.878 59.5753C148.878 64.0246 147.175 67.3944 143.768 69.6845C140.427 71.9746 136.169 73.1196 130.994 73.1196Z" fill="#0EB378"/>
<path d="M22.6004 129.204C18.5388 129.204 14.7721 128.255 11.3002 126.357C7.89375 124.394 5.1424 121.646 3.04613 118.113C1.01538 114.514 0 110.327 0 105.55C0 100.839 0.884362 96.717 2.65308 93.1837C4.48732 89.6504 7.07489 86.9023 10.4158 84.9393C13.7567 82.9764 17.6872 81.9949 22.2073 81.9949C24.8276 81.9949 27.2842 82.4529 29.577 83.369C31.8698 84.285 33.8023 85.4301 35.3745 86.8041C36.9467 88.1127 37.9948 89.4214 38.5189 90.73L38.7154 83.1727H48.8364V128.222H38.8136L38.6171 120.272C37.5035 122.628 35.4727 124.722 32.5249 126.554C29.577 128.32 26.2688 129.204 22.6004 129.204ZM24.3691 120.37C28.103 120.37 31.2474 119.095 33.8023 116.543C36.3571 113.925 37.6345 110.523 37.6345 106.335V105.648C37.6345 102.835 37.0449 100.316 35.8658 98.091C34.6866 95.8664 33.0817 94.1324 31.0509 92.8892C29.0202 91.646 26.7929 91.0244 24.3691 91.0244C20.1765 91.0244 16.9339 92.3985 14.6411 95.1466C12.3483 97.8293 11.2019 101.33 11.2019 105.648C11.2019 110.032 12.3156 113.598 14.5428 116.346C16.8356 119.029 20.111 120.37 24.3691 120.37Z" fill="#0EB378"/>
<path d="M55.443 83.1727H65.6623V91.5152C69.2653 85.1683 74.899 81.9949 82.5634 81.9949C88.9177 81.9949 94.0602 84.0233 97.9906 88.08C101.921 92.0713 103.886 97.862 103.886 105.452C103.886 110.163 102.904 114.318 100.939 117.917C99.0388 121.515 96.4184 124.296 93.0775 126.259C89.8021 128.222 86.1336 129.204 82.0721 129.204C78.2727 129.204 74.9645 128.549 72.1476 127.241C69.3963 125.867 67.2345 123.936 65.6623 121.45L65.7606 152.072H55.443V83.1727ZM79.6156 120.272C83.8736 120.272 87.149 118.931 89.4418 116.248C91.7346 113.5 92.881 110 92.881 105.747C92.881 101.297 91.7346 97.7639 89.4418 95.1466C87.2145 92.4639 83.9391 91.1226 79.6156 91.1226C77.2573 91.1226 75.03 91.7115 72.9337 92.8892C70.903 94.0016 69.2653 95.6374 68.0206 97.7966C66.8415 99.8904 66.2519 102.344 66.2519 105.158V105.845C66.2519 108.658 66.8415 111.177 68.0206 113.402C69.2653 115.561 70.903 117.262 72.9337 118.506C74.9645 119.683 77.1918 120.272 79.6156 120.272Z" fill="#0EB378"/>
<path d="M107.557 83.1727H117.776V91.5152C121.379 85.1683 127.013 81.9949 134.677 81.9949C141.031 81.9949 146.174 84.0233 150.104 88.08C154.035 92.0713 156 97.862 156 105.452C156 110.163 155.017 114.318 153.052 117.917C151.152 121.515 148.532 124.296 145.191 126.259C141.916 128.222 138.247 129.204 134.186 129.204C130.386 129.204 127.078 128.549 124.261 127.241C121.51 125.867 119.348 123.936 117.776 121.45L117.874 152.072H107.557V83.1727ZM131.729 120.272C135.987 120.272 139.263 118.931 141.555 116.248C143.848 113.5 144.995 110 144.995 105.747C144.995 101.297 143.848 97.7639 141.555 95.1466C139.328 92.4639 136.053 91.1226 131.729 91.1226C129.371 91.1226 127.144 91.7115 125.047 92.8892C123.017 94.0016 121.379 95.6374 120.134 97.7966C118.955 99.8904 118.366 102.344 118.366 105.158V105.845C118.366 108.658 118.955 111.177 120.134 113.402C121.379 115.561 123.017 117.262 125.047 118.506C127.078 119.683 129.305 120.272 131.729 120.272Z" fill="#0EB378"/>
</svg>
