<svg width="23" height="18" viewBox="0 0 23 18" fill="none" xmlns="http://www.w3.org/2000/svg">
<path d="M11 0.750008V17.25C11.0001 17.3954 10.9579 17.5377 10.8786 17.6596C10.7993 17.7814 10.6863 17.8776 10.5533 17.9364C10.4204 17.9952 10.2732 18.0141 10.1296 17.9908C9.98613 17.9675 9.8525 17.9029 9.745 17.805L4.46 13H1.75C1.28587 13 0.840752 12.8156 0.512563 12.4874C0.184374 12.1593 0 11.7141 0 11.25V6.75001C0 5.78401 0.784 5.00001 1.75 5.00001H4.46L9.745 0.195008C9.8525 0.0971071 9.98613 0.0325636 10.1296 0.00923165C10.2732 -0.0141002 10.4204 0.00478559 10.5533 0.0635911C10.6863 0.122397 10.7993 0.218586 10.8786 0.340453C10.9579 0.462321 11.0001 0.604611 11 0.750008ZM5.255 6.30501C5.11692 6.43078 4.93678 6.50034 4.75 6.50001H1.75C1.6837 6.50001 1.62011 6.52635 1.57322 6.57323C1.52634 6.62012 1.5 6.6837 1.5 6.75001V11.25C1.5 11.388 1.612 11.5 1.75 11.5H4.75C4.937 11.5 5.117 11.569 5.255 11.695L9.5 15.555V2.44501L5.255 6.30501ZM15.28 5.22001C15.2113 5.14632 15.1285 5.08722 15.0365 5.04623C14.9445 5.00524 14.8452 4.98319 14.7445 4.98142C14.6438 4.97964 14.5438 4.99816 14.4504 5.03589C14.357 5.07361 14.2722 5.12975 14.201 5.20097C14.1297 5.27219 14.0736 5.35702 14.0359 5.45041C13.9982 5.5438 13.9796 5.64383 13.9814 5.74453C13.9832 5.84523 14.0052 5.94455 14.0462 6.03655C14.0872 6.12855 14.1463 6.21135 14.22 6.28001L16.94 9.00001L14.22 11.72C14.1463 11.7887 14.0872 11.8715 14.0462 11.9635C14.0052 12.0555 13.9832 12.1548 13.9814 12.2555C13.9796 12.3562 13.9982 12.4562 14.0359 12.5496C14.0736 12.643 14.1297 12.7278 14.201 12.799C14.2722 12.8703 14.357 12.9264 14.4504 12.9641C14.5438 13.0019 14.6438 13.0204 14.7445 13.0186C14.8452 13.0168 14.9445 12.9948 15.0365 12.9538C15.1285 12.9128 15.2113 12.8537 15.28 12.78L18 10.06L20.72 12.78C20.7887 12.8537 20.8715 12.9128 20.9635 12.9538C21.0555 12.9948 21.1548 13.0168 21.2555 13.0186C21.3562 13.0204 21.4562 13.0019 21.5496 12.9641C21.643 12.9264 21.7278 12.8703 21.799 12.799C21.8703 12.7278 21.9264 12.643 21.9641 12.5496C22.0018 12.4562 22.0204 12.3562 22.0186 12.2555C22.0168 12.1548 21.9948 12.0555 21.9538 11.9635C21.9128 11.8715 21.8537 11.7887 21.78 11.72L19.06 9.00001L21.78 6.28001C21.9125 6.13783 21.9846 5.94979 21.9812 5.75549C21.9777 5.56118 21.899 5.3758 21.7616 5.23839C21.6242 5.10097 21.4388 5.02226 21.2445 5.01883C21.0502 5.0154 20.8622 5.08753 20.72 5.22001L18 7.94001L15.28 5.22001Z" fill="#333333"/>
</svg>
