<svg width="22" height="18" viewBox="0 0 22 18" fill="none" xmlns="http://www.w3.org/2000/svg">
<path d="M10.553 0.0640653C10.686 0.122792 10.799 0.218896 10.8784 0.340685C10.9577 0.462475 11 0.604702 11 0.750065V17.2501C11.0001 17.3955 10.9579 17.5378 10.8786 17.6596C10.7993 17.7815 10.6863 17.8777 10.5533 17.9365C10.4204 17.9953 10.2732 18.0142 10.1296 17.9908C9.98613 17.9675 9.8525 17.903 9.745 17.8051L4.46 13.0001H1.75C1.28587 13.0001 0.840752 12.8157 0.512563 12.4875C0.184374 12.1593 0 11.7142 0 11.2501V6.75007C0 5.78407 0.784 5.00007 1.75 5.00007H4.46L9.745 0.195065C9.85275 0.0976888 9.98638 0.0335944 10.1298 0.0105251C10.2732 -0.0125442 10.4201 0.00639882 10.553 0.0650655V0.0640653ZM9.5 2.44507L5.255 6.30507C5.11692 6.43084 4.93678 6.50039 4.75 6.50007H1.75C1.6837 6.50007 1.62011 6.5264 1.57322 6.57329C1.52634 6.62017 1.5 6.68376 1.5 6.75007V11.2501C1.5 11.3881 1.612 11.5001 1.75 11.5001H4.75C4.937 11.5001 5.117 11.5691 5.255 11.6951L9.5 15.5551V2.44507ZM17.718 1.22207C17.8586 1.08162 18.0492 1.00273 18.248 1.00273C18.4468 1.00273 18.6374 1.08162 18.778 1.22207C23.074 5.51807 23.074 12.4821 18.778 16.7781C18.6358 16.9105 18.4478 16.9827 18.2535 16.9792C18.0592 16.9758 17.8738 16.8971 17.7364 16.7597C17.599 16.6223 17.5203 16.4369 17.5168 16.2426C17.5134 16.0483 17.5855 15.8602 17.718 15.7181C18.6003 14.8359 19.3002 13.7886 19.7777 12.6359C20.2552 11.4832 20.501 10.2477 20.501 9.00007C20.501 7.75239 20.2552 6.51694 19.7777 5.36426C19.3002 4.21157 18.6003 3.16424 17.718 2.28207C17.5776 2.14144 17.4987 1.95082 17.4987 1.75207C17.4987 1.55331 17.5776 1.36269 17.718 1.22207Z" fill="#333333"/>
</svg>
