<svg width="24" height="24" viewBox="0 0 24 24" fill="none" xmlns="http://www.w3.org/2000/svg">
<path d="M22 7.9375C22 5.76625 17.52 4 12 4C6.48 4 2 5.76625 2 7.9375C2 9.97375 5.95 11.6612 11 11.8525V16.375H9.35C8.53 16.375 7.8 16.9375 7.49 17.7925L6.5 20.5712C6.27 21.2575 6.71 22 7.37 22C7.75 22 8.09 21.7413 8.23 21.3475L9.2 18.625H14.8L15.77 21.3475C15.91 21.7413 16.25 22 16.63 22C17.29 22 17.74 21.2575 17.49 20.5712L16.5 17.7925C16.2 16.9375 15.46 16.375 14.65 16.375H13V11.8525C18.05 11.6612 22 9.97375 22 7.9375Z" fill="#333333"/>
</svg>
