<svg width="72" height="60" viewBox="0 0 72 60" fill="none" xmlns="http://www.w3.org/2000/svg">
<path d="M42 20H33C32.4696 20 31.9609 20.2107 31.5858 20.5858C31.2107 20.9609 31 21.4696 31 22V23C31 23.2652 31.1054 23.5196 31.2929 23.7071C31.4804 23.8946 31.7348 24 32 24C32.2652 24 32.5196 23.8946 32.7071 23.7071C32.8946 23.5196 33 23.2652 33 23V22H42V38H33V37C33 36.7348 32.8946 36.4804 32.7071 36.2929C32.5196 36.1054 32.2652 36 32 36C31.7348 36 31.4804 36.1054 31.2929 36.2929C31.1054 36.4804 31 36.7348 31 37V38C31 38.5304 31.2107 39.0391 31.5858 39.4142C31.9609 39.7893 32.4696 40 33 40H42C42.5304 40 43.0391 39.7893 43.4142 39.4142C43.7893 39.0391 44 38.5304 44 38V22C44 21.4696 43.7893 20.9609 43.4142 20.5858C43.0391 20.2107 42.5304 20 42 20V20Z" fill="#0EB378"/>
<path d="M31.205 34.295C30.815 34.685 30.185 34.685 29.795 34.295L26.207 30.707C26.0195 30.5195 25.9142 30.2652 25.9142 30C25.9142 29.7348 26.0195 29.4805 26.207 29.293L29.795 25.705C29.9851 25.5332 30.2339 25.441 30.4901 25.4475C30.7462 25.4539 30.9901 25.5586 31.1713 25.7397C31.3524 25.9209 31.4571 26.1648 31.4635 26.4209C31.47 26.6771 31.3778 26.9259 31.206 27.116L29.33 29H38C38.2652 29 38.5196 29.1054 38.7071 29.2929C38.8946 29.4804 39 29.7348 39 30C39 30.2652 38.8946 30.5196 38.7071 30.7071C38.5196 30.8946 38.2652 31 38 31H29.33L31.206 32.884C31.3927 33.0714 31.4974 33.3252 31.4972 33.5897C31.497 33.8542 31.3919 34.1079 31.205 34.295Z" fill="#0EB378"/>
</svg>




