<svg width="24" height="24" viewBox="0 0 24 24" fill="none" xmlns="http://www.w3.org/2000/svg">
<path d="M18 2H9C8.46957 2 7.96086 2.21071 7.58579 2.58579C7.21071 2.96086 7 3.46957 7 4V5C7 5.26522 7.10536 5.51957 7.29289 5.70711C7.48043 5.89464 7.73478 6 8 6C8.26522 6 8.51957 5.89464 8.70711 5.70711C8.89464 5.51957 9 5.26522 9 5V4H18V20H9V19C9 18.7348 8.89464 18.4804 8.70711 18.2929C8.51957 18.1054 8.26522 18 8 18C7.73478 18 7.48043 18.1054 7.29289 18.2929C7.10536 18.4804 7 18.7348 7 19V20C7 20.5304 7.21071 21.0391 7.58579 21.4142C7.96086 21.7893 8.46957 22 9 22H18C18.5304 22 19.0391 21.7893 19.4142 21.4142C19.7893 21.0391 20 20.5304 20 20V4C20 3.46957 19.7893 2.96086 19.4142 2.58579C19.0391 2.21071 18.5304 2 18 2Z" fill="#0EB378"/>
<path d="M7.205 16.295C6.815 16.685 6.185 16.685 5.795 16.295L2.207 12.707C2.01953 12.5195 1.91421 12.2652 1.91421 12C1.91421 11.7348 2.01953 11.4805 2.207 11.293L5.795 7.705C5.98509 7.5332 6.23392 7.441 6.49007 7.44746C6.74621 7.45393 6.99008 7.55857 7.17126 7.73974C7.35244 7.92092 7.45708 8.16479 7.46354 8.42093C7.47001 8.67708 7.37781 8.92591 7.206 9.116L5.33 11H14C14.2652 11 14.5196 11.1054 14.7071 11.2929C14.8946 11.4804 15 11.7348 15 12C15 12.2652 14.8946 12.5196 14.7071 12.7071C14.5196 12.8946 14.2652 13 14 13H5.33L7.206 14.884C7.39267 15.0714 7.49739 15.3252 7.4972 15.5897C7.49701 15.8542 7.39193 16.1079 7.205 16.295Z" fill="#0EB378"/>
</svg>
